<?xml version="1.0" encoding="UTF-8"?>
<!DOCTYPE svg PUBLIC "-//W3C//DTD SVG 1.1//EN" "http://www.w3.org/Graphics/SVG/1.1/DTD/svg11.dtd">
<!-- Creator: CorelDRAW X6 -->
<svg xmlns="http://www.w3.org/2000/svg" xml:space="preserve" width="2550px" height="3300px" version="1.1" shape-rendering="geometricPrecision" text-rendering="geometricPrecision" image-rendering="optimizeQuality" fill-rule="evenodd" clip-rule="evenodd"
viewBox="0 0 2550 3300"
 xmlns:xlink="http://www.w3.org/1999/xlink">
 <g id="Layer_x0020_1">
  <metadata id="CorelCorpID_0Corel-Layer"/>
  <g id="_684204784">
   <path fill="#EBECEC" d="M-3443 1038l405 0c154,0 294,63 396,164 45,45 83,98 110,156l-309 0c-54,-44 -122,-71 -197,-71l-405 0c-85,0 -163,35 -219,91 -56,56 -91,134 -91,219l0 0c0,85 35,163 91,219 56,56 134,91 219,91l405 0c74,0 143,-27 197,-71l309 0c-28,58 -65,111 -110,156 -101,101 -242,164 -396,164l-405 0c-154,0 -294,-63 -396,-164 -101,-101 -164,-242 -164,-396l0 0c0,-154 63,-294 164,-396 101,-101 242,-164 396,-164z"/>
   <path fill="#D9DADA" d="M-2335 1038l405 0c154,0 294,63 396,164 101,101 164,242 164,396l0 0c0,154 -63,294 -164,396 -101,101 -242,164 -396,164l-405 0c-154,0 -294,-63 -396,-164 -45,-45 -83,-98 -110,-156l309 0c54,44 122,71 197,71l405 0c85,0 163,-35 219,-91 56,-56 91,-134 91,-219l0 0c0,-85 -35,-163 -91,-219 -56,-56 -134,-91 -219,-91l-405 0c-74,0 -143,27 -197,71l-309 0c28,-58 65,-111 110,-156 101,-101 242,-164 396,-164z"/>
   <path fill="#5ABBC4" fill-rule="nonzero" d="M-3514 1781c0,1 0,2 -1,3 -1,1 -1,2 -2,2 -1,1 -3,1 -5,1 -2,0 -4,1 -7,1 -3,0 -5,0 -7,-1 -2,0 -4,-1 -5,-1 -1,0 -2,-1 -2,-2 -1,-1 -1,-2 -1,-3l0 -308c0,-1 0,-2 1,-3 1,-1 2,-2 3,-2 1,-1 3,-1 5,-1 2,0 4,-1 7,-1 3,0 5,0 7,1 2,0 3,1 5,1 1,0 2,1 2,2 1,1 1,2 1,3l0 308z"/>
   <path id="1" fill="#5ABBC4" fill-rule="nonzero" d="M-3173 1772c0,3 0,5 -1,7 -1,2 -2,4 -3,5 -1,1 -3,2 -5,3 -2,1 -3,1 -5,1l-6 0c-3,0 -6,0 -9,-1 -3,-1 -5,-2 -8,-4 -3,-2 -5,-5 -8,-8 -3,-3 -5,-8 -8,-13l-112 -199c-6,-10 -11,-20 -17,-30 -6,-10 -11,-20 -16,-30l0 0c0,12 0,24 0,37 0,12 0,25 0,37l0 206c0,1 0,2 -1,3 -1,1 -1,2 -2,2 -1,1 -3,1 -5,1 -2,0 -4,1 -7,1 -3,0 -5,0 -7,-1 -2,0 -4,-1 -5,-1 -1,0 -2,-1 -2,-2 -1,-1 -1,-2 -1,-3l0 -298c0,-6 2,-10 5,-12 3,-2 6,-3 9,-3l12 0c4,0 7,0 10,1 3,1 5,2 7,3 2,2 4,4 6,7 2,3 4,7 7,11l86 152c5,9 11,19 15,27 5,9 10,17 14,26 5,8 9,17 14,25 4,8 9,16 13,25l0 0c0,-14 0,-28 0,-43 0,-15 0,-29 0,-43l0 -185c0,-1 0,-2 1,-3 1,-1 1,-2 2,-2 1,-1 3,-1 5,-1 2,0 4,0 7,0 3,0 5,0 7,0 2,0 4,1 5,1 1,1 2,1 3,2 1,1 1,2 1,3l0 298z"/>
   <path id="2" fill="#5ABBC4" fill-rule="nonzero" d="M-2900 1482c0,2 0,4 -1,6 0,2 -1,3 -2,4 -1,1 -2,2 -3,2 -1,1 -2,1 -3,1l-123 0 0 121 117 0c1,0 2,0 3,1 1,0 2,1 3,2 1,1 1,2 2,4 0,2 1,4 1,6 0,2 0,4 -1,6 0,2 -1,3 -2,4 -1,1 -2,2 -3,2 -1,1 -2,1 -3,1l-117 0 0 140c0,1 0,2 -1,3 -1,1 -1,2 -2,2 -1,0 -3,1 -5,1 -2,0 -4,1 -7,1 -3,0 -5,0 -7,-1 -2,0 -4,-1 -5,-1 -1,0 -2,-1 -2,-2 -1,-1 -1,-2 -1,-3l0 -298c0,-6 2,-10 5,-12 3,-2 6,-3 9,-3l139 0c1,0 2,0 3,1 1,1 2,1 3,3 1,1 1,3 2,4 0,2 1,4 1,6z"/>
   <path id="3" fill="#5ABBC4" fill-rule="nonzero" d="M-2780 1781c0,1 0,2 -1,3 -1,1 -1,2 -2,2 -1,1 -3,1 -5,1 -2,0 -4,1 -7,1 -3,0 -5,0 -7,-1 -2,0 -4,-1 -5,-1 -1,0 -2,-1 -2,-2 -1,-1 -1,-2 -1,-3l0 -308c0,-1 0,-2 1,-3 1,-1 2,-2 3,-2 1,-1 3,-1 5,-1 2,0 4,-1 7,-1 3,0 5,0 7,1 2,0 3,1 5,1 1,0 2,1 2,2 1,1 1,2 1,3l0 308z"/>
   <path id="4" fill="#5ABBC4" fill-rule="nonzero" d="M-2439 1772c0,3 0,5 -1,7 -1,2 -2,4 -3,5 -1,1 -3,2 -5,3 -2,1 -3,1 -5,1l-6 0c-3,0 -6,0 -9,-1 -3,-1 -5,-2 -8,-4 -3,-2 -5,-5 -8,-8 -3,-3 -5,-8 -8,-13l-112 -199c-6,-10 -11,-20 -17,-30 -6,-10 -11,-20 -16,-30l0 0c0,12 0,24 0,37 0,12 0,25 0,37l0 206c0,1 0,2 -1,3 -1,1 -1,2 -2,2 -1,1 -3,1 -5,1 -2,0 -4,1 -7,1 -3,0 -5,0 -7,-1 -2,0 -4,-1 -5,-1 -1,0 -2,-1 -2,-2 -1,-1 -1,-2 -1,-3l0 -298c0,-6 2,-10 5,-12 3,-2 6,-3 9,-3l12 0c4,0 7,0 10,1 3,1 5,2 7,3 2,2 4,4 6,7 2,3 4,7 7,11l86 152c5,9 11,19 15,27 5,9 10,17 14,26 5,8 9,17 14,25 4,8 9,16 13,25l0 0c0,-14 0,-28 0,-43 0,-15 0,-29 0,-43l0 -185c0,-1 0,-2 1,-3 1,-1 1,-2 2,-2 1,-1 3,-1 5,-1 2,0 4,0 7,0 3,0 5,0 7,0 2,0 4,1 5,1 1,1 2,1 3,2 1,1 1,2 1,3l0 298z"/>
   <path id="5" fill="#5ABBC4" fill-rule="nonzero" d="M-2296 1781c0,1 0,2 -1,3 -1,1 -1,2 -2,2 -1,1 -3,1 -5,1 -2,0 -4,1 -7,1 -3,0 -5,0 -7,-1 -2,0 -4,-1 -5,-1 -1,0 -2,-1 -2,-2 -1,-1 -1,-2 -1,-3l0 -308c0,-1 0,-2 1,-3 1,-1 2,-2 3,-2 1,-1 3,-1 5,-1 2,0 4,-1 7,-1 3,0 5,0 7,1 2,0 3,1 5,1 1,0 2,1 2,2 1,1 1,2 1,3l0 308z"/>
   <path id="6" fill="#5ABBC4" fill-rule="nonzero" d="M-1991 1482c0,2 0,4 -1,6 0,2 -1,3 -1,4 -1,1 -2,2 -3,2 -1,1 -2,1 -3,1l-95 0 0 287c0,1 0,2 -1,3 -1,1 -1,2 -2,2 -1,1 -3,1 -5,1 -2,0 -4,1 -7,1 -3,0 -5,0 -7,-1 -2,0 -4,-1 -5,-1 -1,0 -2,-1 -2,-2 -1,-1 -1,-2 -1,-3l0 -287 -95 0c-1,0 -2,0 -3,-1 -1,-1 -2,-1 -2,-2 -1,-1 -1,-2 -1,-4 0,-2 -1,-3 -1,-6 0,-2 0,-4 1,-6 0,-2 1,-3 1,-4 1,-1 2,-2 2,-3 1,-1 2,-1 3,-1l220 0c1,0 2,0 3,1 1,1 2,1 3,3 1,1 1,3 1,4 0,2 1,4 1,6z"/>
   <path id="7" fill="#5ABBC4" fill-rule="nonzero" d="M-1834 1661l0 120c0,1 0,2 -1,3 -1,1 -1,2 -2,2 -1,1 -3,1 -5,1 -2,0 -4,1 -7,1 -3,0 -5,0 -7,-1 -2,0 -3,-1 -5,-1 -1,0 -2,-1 -3,-2 -1,-1 -1,-2 -1,-3l0 -120 -92 -183c-1,-3 -2,-4 -2,-6 0,-1 0,-3 1,-3 1,-1 2,-1 5,-2 2,0 5,-1 8,-1 4,0 7,0 9,0 2,0 4,1 5,1 1,0 3,1 3,2 1,1 1,2 2,3l49 99c5,9 9,19 14,29 5,10 9,20 14,30l1 0c4,-10 9,-19 13,-29 4,-10 9,-20 14,-29l49 -100c1,-1 1,-2 2,-3 1,-1 2,-2 3,-2 1,-1 3,-1 5,-1 2,0 4,0 7,0 4,0 7,0 10,1 2,0 4,1 5,2 1,1 1,2 1,4 0,2 -1,3 -2,6l-92 183z"/>
  </g>
  <path fill="#FFA600" d="M867 58l210 0c80,0 153,33 205,85 23,23 43,51 57,81l-160 0c-28,-23 -64,-37 -102,-37l-210 0c-44,0 -85,18 -114,47 -29,29 -47,70 -47,114l0 0c0,44 18,85 47,114 29,29 70,47 114,47l210 0c39,0 74,-14 102,-37l160 0c-14,30 -34,58 -57,81 -53,53 -125,85 -205,85l-210 0c-80,0 -153,-33 -205,-85 -53,-53 -85,-125 -85,-205l0 0c0,-80 33,-153 85,-205 53,-53 125,-85 205,-85z"/>
  <path fill="#89C6AC" d="M1451 58l210 0c80,0 153,33 205,85 53,53 85,125 85,205l0 0c0,80 -33,153 -85,205 -53,53 -125,85 -205,85l-210 0c-80,0 -153,-33 -205,-85 -23,-23 -43,-51 -57,-81l160 0c28,23 64,37 102,37l210 0c44,0 85,-18 114,-47 29,-29 47,-70 47,-114l0 0c0,-44 -18,-85 -47,-114 -29,-29 -70,-47 -114,-47l-210 0c-39,0 -74,14 -102,37l-160 0c14,-30 34,-58 57,-81 53,-53 125,-85 205,-85z"/>
  <path fill="#89C6AC" fill-rule="nonzero" d="M802 454c0,1 0,1 0,2 0,1 -1,1 -1,1 -1,0 -2,1 -3,1 -1,0 -3,0 -4,0 -2,0 -3,0 -4,0 -1,0 -2,0 -3,-1 -1,0 -1,-1 -1,-1 0,-1 0,-1 0,-2l0 -137c0,-1 0,-1 0,-2 0,-1 1,-1 1,-1 1,0 2,-1 3,-1 1,0 3,0 4,0 2,0 3,0 4,0 1,0 2,0 3,1 1,0 1,1 1,1 0,1 0,1 0,2l0 137zm3 -183c0,5 -1,8 -3,10 -2,2 -5,3 -9,3 -4,0 -8,-1 -9,-3 -2,-2 -2,-5 -2,-10 0,-5 1,-8 3,-10 2,-2 5,-3 9,-3 4,0 8,1 9,3 2,2 2,5 2,10z"/>
  <path id="1" fill="#89C6AC" fill-rule="nonzero" d="M964 454c0,1 0,1 0,2 0,1 -1,1 -1,1 -1,0 -2,1 -3,1 -1,0 -3,0 -4,0 -2,0 -3,0 -5,0 -1,0 -2,0 -3,-1 -1,0 -1,-1 -1,-1 0,-1 0,-1 0,-2l0 -81c0,-8 -1,-15 -2,-21 -1,-5 -3,-10 -6,-14 -3,-4 -6,-7 -10,-9 -4,-2 -9,-3 -14,-3 -7,0 -14,2 -21,7 -7,5 -14,12 -22,22l0 98c0,1 0,1 0,2 0,1 -1,1 -1,1 -1,0 -2,1 -3,1 -1,0 -3,0 -4,0 -2,0 -3,0 -4,0 -1,0 -2,0 -3,-1 -1,0 -1,-1 -1,-1 0,-1 0,-1 0,-2l0 -137c0,-1 0,-1 0,-2 0,-1 1,-1 1,-1 1,0 2,-1 3,-1 1,0 2,0 4,0 2,0 3,0 4,0 1,0 2,0 3,1 1,0 1,1 1,1 0,1 0,1 0,2l0 19c8,-9 16,-15 23,-19 8,-4 15,-6 23,-6 9,0 17,2 23,5 6,3 11,7 15,12 4,5 7,11 8,18 2,7 2,15 2,25l0 83z"/>
  <path id="2" fill="#89C6AC" fill-rule="nonzero" d="M1125 271c0,2 0,4 -1,6 0,2 -1,3 -2,4 -1,1 -2,2 -4,2 -2,0 -3,1 -6,1 -2,0 -4,0 -6,-1 -2,0 -3,-1 -4,-2 -1,-1 -2,-2 -2,-4 0,-2 -1,-4 -1,-6 0,-2 0,-4 1,-6 0,-2 1,-3 2,-4 1,-1 2,-2 4,-2 2,0 3,-1 6,-1 2,0 4,0 6,1 2,0 3,1 4,2 1,1 2,2 2,4 0,2 1,4 1,6zm-3 184c0,1 0,1 0,2 0,1 -1,1 -1,1 -1,0 -2,1 -3,1 -1,0 -3,0 -4,0 -2,0 -3,0 -5,0 -1,0 -2,0 -3,-1 -1,0 -1,-1 -1,-1 0,-1 0,-1 0,-2l0 -125 -67 0 0 125c0,1 0,1 0,2 0,1 -1,1 -1,1 -1,0 -2,1 -3,1 -1,0 -3,0 -4,0 -2,0 -3,0 -4,0 -1,0 -2,0 -3,-1 -1,0 -1,-1 -1,-1 0,-1 0,-1 0,-2l0 -125 -21 0c-1,0 -2,-1 -3,-2 -1,-1 -1,-3 -1,-6 0,-1 0,-2 0,-3 0,-1 0,-2 1,-2 0,-1 1,-1 1,-1 1,0 1,0 2,0l21 0 0 -16c0,-10 1,-18 3,-24 2,-7 4,-12 8,-16 3,-4 8,-7 13,-9 5,-2 11,-3 17,-3 2,0 4,0 7,0 2,0 4,0 6,1 2,0 3,1 5,1 1,0 2,1 3,1 0,0 1,1 1,1 0,1 1,1 1,2 0,1 0,1 0,2 0,1 0,2 0,3 0,2 0,4 -1,5 0,1 -1,2 -2,2 -1,0 -2,0 -3,-1 -1,0 -2,-1 -4,-1 -1,0 -3,-1 -5,-1 -2,0 -5,-1 -8,-1 -8,0 -13,3 -17,9 -3,6 -5,15 -5,28l0 16 80 0c2,0 3,1 4,2 1,1 1,3 1,4l0 134z"/>
  <path id="3" fill="#5ABBC4" fill-rule="nonzero" d="M1280 449c0,1 0,3 0,4 0,1 -1,2 -1,3 0,1 -1,1 -2,2 -1,0 -1,1 -2,1l-85 0c-2,0 -4,-1 -6,-2 -2,-1 -3,-4 -3,-8l0 -184c0,-1 0,-1 0,-2 0,-1 1,-1 2,-1 1,0 2,-1 3,-1 1,0 3,0 4,0 2,0 3,0 5,0 1,0 2,0 3,1 1,0 1,1 2,1 0,1 0,1 0,2l0 177 75 0c1,0 2,0 2,1 1,0 1,1 2,2 0,1 1,2 1,3 0,1 0,2 0,4z"/>
  <path id="4" fill="#5ABBC4" fill-rule="nonzero" d="M1342 454c0,1 0,1 0,2 0,1 -1,1 -2,1 -1,0 -2,1 -3,1 -1,0 -3,0 -5,0 -2,0 -3,0 -4,0 -1,0 -2,0 -3,-1 -1,0 -1,-1 -2,-1 0,-1 0,-1 0,-2l0 -190c0,-1 0,-1 1,-2 0,-1 1,-1 2,-1 1,0 2,-1 3,-1 1,0 3,0 4,0 2,0 3,0 5,0 1,0 2,0 3,1 1,0 1,1 2,1 0,1 0,1 0,2l0 190z"/>
  <path id="5" fill="#5ABBC4" fill-rule="nonzero" d="M1553 448c0,2 0,3 -1,5 -1,1 -1,2 -2,3 -1,1 -2,1 -3,2 -1,0 -2,0 -3,0l-4 0c-2,0 -4,0 -6,-1 -2,0 -3,-1 -5,-3 -2,-1 -3,-3 -5,-5 -2,-2 -3,-5 -5,-8l-69 -123c-3,-6 -7,-12 -10,-18 -4,-6 -7,-12 -10,-18l0 0c0,7 0,15 0,23 0,8 0,15 0,23l0 127c0,1 0,1 0,2 0,1 -1,1 -2,1 -1,0 -2,1 -3,1 -1,0 -3,0 -5,0 -2,0 -3,0 -4,0 -1,0 -2,0 -3,-1 -1,0 -1,-1 -2,-1 0,-1 0,-1 0,-2l0 -184c0,-4 1,-6 3,-8 2,-1 4,-2 6,-2l8 0c2,0 4,0 6,1 2,0 3,1 4,2 1,1 3,2 4,4 1,2 3,4 4,7l53 94c3,6 7,11 9,17 3,5 6,11 9,16 3,5 6,10 8,15 3,5 5,10 8,15l0 0c0,-8 0,-17 0,-27 0,-9 0,-18 0,-27l0 -114c0,-1 0,-1 0,-2 0,-1 1,-1 2,-1 1,0 2,-1 3,-1 1,0 3,0 5,0 2,0 3,0 4,0 1,0 2,0 3,1 1,0 1,1 2,1 0,1 1,1 1,2l0 184z"/>
  <path id="6" fill="#5ABBC4" fill-rule="nonzero" d="M1742 454c0,1 0,1 0,2 0,1 -1,1 -1,1 -1,0 -2,1 -3,1 -1,0 -3,0 -5,0 -2,0 -4,0 -6,0 -2,0 -3,-1 -4,-1 -1,-1 -2,-1 -3,-2l-79 -101 0 101c0,1 0,1 0,2 0,1 -1,1 -2,1 -1,0 -2,1 -3,1 -1,0 -3,0 -5,0 -2,0 -3,0 -4,0 -1,0 -2,0 -3,-1 -1,0 -1,-1 -2,-1 0,-1 0,-1 0,-2l0 -190c0,-1 0,-1 0,-2 0,-1 1,-1 2,-1 1,0 2,-1 3,-1 1,0 3,0 4,0 2,0 3,0 5,0 1,0 2,0 3,1 1,0 1,1 2,1 0,1 0,1 0,2l0 89 76 -89c1,-1 1,-1 2,-2 1,-1 2,-1 2,-1 1,0 2,-1 3,-1 1,0 3,0 5,0 2,0 3,0 4,0 1,0 2,0 3,1 1,0 1,1 1,1 0,0 0,1 0,2 0,1 0,2 -1,3 -1,1 -2,2 -3,4l-71 82 76 96c1,2 2,3 3,4 0,1 0,1 0,2z"/>
  <g id="_684200368">
   <path fill="#89C6AC" d="M3550 -2043l22 0c8,0 16,3 21,9 5,6 9,13 9,22l0 0c0,8 -3,16 -9,22 -5,6 -13,9 -21,9l-22 0c-8,0 -16,-3 -21,-9 -2,-2 -4,-5 -6,-8l16 0c3,2 7,4 10,4l22 0c5,0 9,-2 12,-5 3,-3 5,-7 5,-12l0 0c0,-5 -2,-9 -5,-12 -3,-3 -7,-5 -12,-5l-22 0c-4,0 -8,1 -10,4l-16 0c1,-3 3,-6 6,-8 5,-6 13,-9 21,-9z"/>
   <polygon fill="#5ABBC4" fill-rule="nonzero" points="3486,-2020 3490,-2020 3490,-2002 3486,-2002 "/>
   <polygon id="1" fill="#5ABBC4" fill-rule="nonzero" points="3505,-2020 3508,-2020 3508,-2002 3505,-2002 3497,-2014 3497,-2002 3493,-2002 3493,-2020 3497,-2020 3505,-2008 "/>
   <polygon id="2" fill="#5ABBC4" fill-rule="nonzero" points="3512,-2020 3521,-2020 3521,-2016 3515,-2016 3515,-2013 3521,-2013 3521,-2009 3515,-2009 3515,-2002 3512,-2002 "/>
   <polygon id="3" fill="#5ABBC4" fill-rule="nonzero" points="3524,-2020 3528,-2020 3528,-2002 3524,-2002 "/>
   <polygon id="4" fill="#5ABBC4" fill-rule="nonzero" points="3543,-2020 3546,-2020 3546,-2002 3543,-2002 3535,-2014 3535,-2002 3531,-2002 3531,-2020 3535,-2020 3543,-2008 "/>
   <polygon id="5" fill="#5ABBC4" fill-rule="nonzero" points="3550,-2020 3553,-2020 3553,-2002 3550,-2002 "/>
   <polygon id="6" fill="#5ABBC4" fill-rule="nonzero" points="3556,-2020 3567,-2020 3567,-2016 3563,-2016 3563,-2002 3560,-2002 3560,-2016 3556,-2016 "/>
   <polygon id="7" fill="#5ABBC4" fill-rule="nonzero" points="3568,-2020 3572,-2020 3576,-2014 3579,-2020 3583,-2020 3577,-2010 3577,-2002 3574,-2002 3574,-2010 "/>
   <path fill="#FFA600" d="M3492 -2043l22 0c8,0 16,3 21,9 2,2 4,5 6,8l-16 0c-3,-2 -7,-4 -10,-4l-22 0c-5,0 -9,2 -12,5 -3,3 -5,7 -5,12l0 0c0,5 2,9 5,12 3,3 7,5 12,5l22 0c4,0 8,-1 10,-4l16 0c-1,3 -3,6 -6,8 -5,6 -13,9 -21,9l-22 0c-8,0 -16,-3 -21,-9 -5,-6 -9,-13 -9,-22l0 0c0,-8 3,-16 9,-22 5,-6 13,-9 21,-9z"/>
   <polygon fill="#9D9E9E" fill-rule="nonzero" points="3496,-1974 3496,-1979 3500,-1979 3500,-1978 3497,-1978 3497,-1977 3500,-1977 3500,-1976 3497,-1976 3497,-1975 3500,-1975 3500,-1974 "/>
   <polygon id="1" fill="#9D9E9E" fill-rule="nonzero" points="3500,-1974 3502,-1976 3501,-1978 3502,-1978 3502,-1977 3503,-1978 3504,-1978 3503,-1976 3504,-1974 3503,-1974 3502,-1975 3502,-1974 "/>
   <path id="2" fill="#9D9E9E" fill-rule="nonzero" d="M3505 -1978l1 0 0 1c0,0 0,0 0,0 0,0 0,0 1,0 0,0 1,0 1,1 0,0 0,1 0,1 0,1 0,1 0,1 0,0 -1,1 -1,1 0,0 0,0 -1,0 0,0 0,0 -1,0l0 2 -1 0 0 -5zm1 2c0,0 0,1 0,1 0,0 0,0 1,0 0,0 0,0 1,0 0,0 0,0 0,-1 0,0 0,-1 0,-1 0,0 0,0 -1,0 0,0 0,0 -1,0 0,0 0,0 0,1z"/>
   <path id="3" fill="#9D9E9E" fill-rule="nonzero" d="M3511 -1975l1 0c0,0 0,1 -1,1 0,0 -1,0 -1,0 -1,0 -1,0 -1,-1 0,0 0,-1 0,-1 0,-1 0,-1 0,-1 0,0 1,-1 1,-1 1,0 1,0 1,1 0,0 0,1 0,2l-2 0c0,0 0,1 0,1 0,0 0,0 1,0 0,0 0,0 0,0 0,0 0,0 0,0zm0 -1c0,0 0,-1 0,-1 0,0 0,0 0,0 0,0 0,0 -1,0 0,0 0,0 0,1l1 0z"/>
   <path id="4" fill="#9D9E9E" fill-rule="nonzero" d="M3514 -1974l-1 0 0 -4 1 0 0 1c0,0 0,0 0,0 0,0 0,0 0,0 0,0 0,0 1,0l0 1c0,0 0,0 0,0 0,0 0,0 0,0 0,0 0,0 0,0 0,0 0,1 0,1l0 1z"/>
   <path id="5" fill="#9D9E9E" fill-rule="nonzero" d="M3516 -1978l0 -1 1 0 0 1 -1 0zm0 4l0 -4 1 0 0 4 -1 0z"/>
   <path id="6" fill="#9D9E9E" fill-rule="nonzero" d="M3520 -1975l1 0c0,0 0,1 -1,1 0,0 -1,0 -1,0 -1,0 -1,0 -1,-1 0,0 0,-1 0,-1 0,-1 0,-1 0,-1 0,0 1,-1 1,-1 1,0 1,0 1,1 0,0 0,1 0,2l-2 0c0,0 0,1 0,1 0,0 0,0 1,0 0,0 0,0 0,0 0,0 0,0 0,0zm0 -1c0,0 0,-1 0,-1 0,0 0,0 0,0 0,0 0,0 -1,0 0,0 0,0 0,1l1 0z"/>
   <path id="7" fill="#9D9E9E" fill-rule="nonzero" d="M3525 -1974l-1 0 0 -2c0,0 0,-1 0,-1 0,0 0,0 0,0 0,0 0,0 0,0 0,0 0,0 0,0 0,0 0,0 0,0 0,0 0,0 0,1l0 2 -1 0 0 -4 1 0 0 1c0,0 1,-1 1,-1 0,0 0,0 1,0 0,0 0,0 0,0 0,0 0,0 0,0 0,0 0,0 0,1l0 2z"/>
   <path id="8" fill="#9D9E9E" fill-rule="nonzero" d="M3529 -1977l-1 0c0,0 0,0 0,0 0,0 0,0 0,0 0,0 0,0 -1,0 0,0 0,0 0,1 0,0 0,1 0,1 0,0 0,0 1,0 0,0 0,0 0,0 0,0 0,0 0,-1l1 0c0,0 0,1 -1,1 0,0 -1,0 -1,0 -1,0 -1,0 -1,-1 0,0 0,-1 0,-1 0,-1 0,-1 0,-1 0,0 1,-1 1,-1 0,0 1,0 1,0 0,0 0,0 1,1z"/>
   <path id="9" fill="#9D9E9E" fill-rule="nonzero" d="M3532 -1975l1 0c0,0 0,1 -1,1 0,0 -1,0 -1,0 -1,0 -1,0 -1,-1 0,0 0,-1 0,-1 0,-1 0,-1 0,-1 0,0 1,-1 1,-1 1,0 1,0 1,1 0,0 0,1 0,2l-2 0c0,0 0,1 0,1 0,0 0,0 1,0 0,0 0,0 0,0 0,0 0,0 0,0zm0 -1c0,0 0,-1 0,-1 0,0 0,0 0,0 0,0 0,0 -1,0 0,0 0,0 0,1l1 0z"/>
   <path id="10" fill="#9D9E9E" fill-rule="nonzero" d="M3535 -1979l2 0c0,0 1,0 1,0 0,0 1,0 1,0 0,0 0,1 0,1 0,0 0,1 0,1 0,0 0,1 0,1 0,0 0,1 -1,1 0,0 0,0 -1,0 0,0 -1,0 -1,0l-2 0 0 -5zm1 1l0 3 1 0c0,0 0,0 1,0 0,0 0,0 0,0 0,0 0,0 0,0 0,0 0,-1 0,-1 0,0 0,-1 0,-1 0,0 0,0 0,0 0,0 0,0 0,0 0,0 0,0 -1,0l0 0z"/>
   <path id="11" fill="#9D9E9E" fill-rule="nonzero" d="M3541 -1978l0 -1 1 0 0 1 -1 0zm0 4l0 -4 1 0 0 4 -1 0z"/>
   <path id="12" fill="#9D9E9E" fill-rule="nonzero" d="M3542 -1974l1 0c0,0 0,0 0,0 0,0 0,0 0,0 0,0 0,0 1,0 0,0 0,0 0,0 0,0 0,0 0,0l0 -1c0,0 -1,1 -1,1 0,0 -1,0 -1,-1 0,0 0,-1 0,-1 0,-1 0,-1 0,-1 0,0 1,0 1,0 0,0 1,0 1,1l0 -1 1 0 0 3c0,0 0,1 0,1 0,0 0,0 0,1 0,0 0,0 -1,0 0,0 0,0 -1,0 -1,0 -1,0 -1,0 0,0 0,0 0,-1 0,0 0,0 0,0zm1 -2c0,0 0,1 0,1 0,0 0,0 1,0 0,0 0,0 1,0 0,0 0,0 0,-1 0,0 0,-1 0,-1 0,0 0,0 -1,0 0,0 0,0 -1,0 0,0 0,0 0,1z"/>
   <path id="13" fill="#9D9E9E" fill-rule="nonzero" d="M3547 -1978l0 -1 1 0 0 1 -1 0zm0 4l0 -4 1 0 0 4 -1 0z"/>
   <path id="14" fill="#9D9E9E" fill-rule="nonzero" d="M3550 -1978l0 1 -1 0 0 2c0,0 0,0 0,1 0,0 0,0 0,0 0,0 0,0 0,0 0,0 0,0 0,0l0 1c0,0 0,0 -1,0 0,0 0,0 0,0 0,0 0,0 0,0 0,0 0,0 0,0 0,0 0,0 0,-1l0 -2 0 0 0 -1 0 0 0 -1 1 -1 0 1 1 0z"/>
   <path id="15" fill="#9D9E9E" fill-rule="nonzero" d="M3552 -1977l-1 0c0,0 0,-1 1,-1 0,0 1,0 1,0 0,0 1,0 1,0 0,0 0,0 0,0 0,0 0,0 0,1l0 1c0,0 0,1 0,1 0,0 0,0 0,0l-1 0c0,0 0,0 0,0 0,0 0,0 0,0 0,0 0,0 -1,0 0,0 0,0 -1,0 0,0 -1,0 -1,0 0,0 0,0 0,-1 0,0 0,0 0,-1 0,0 0,0 0,0 0,0 0,0 1,0 0,0 1,0 1,0l0 0c0,0 0,0 0,0 0,0 0,0 -1,0 0,0 0,0 0,0 0,0 0,0 0,0zm1 1c0,0 0,0 -1,0 0,0 0,0 -1,0 0,0 0,0 0,0 0,0 0,0 0,0 0,0 0,0 0,0 0,0 0,0 0,0 0,0 0,0 0,0 0,0 0,0 0,0l0 0z"/>
   <polygon id="16" fill="#9D9E9E" fill-rule="nonzero" points="3555,-1974 3555,-1979 3556,-1979 3556,-1974 "/>
   <polygon id="17" fill="#9D9E9E" fill-rule="nonzero" points="3559,-1974 3558,-1979 3559,-1979 3560,-1976 3561,-1979 3562,-1979 3563,-1976 3564,-1979 3565,-1979 3564,-1974 3563,-1974 3562,-1978 3561,-1974 "/>
   <path id="18" fill="#9D9E9E" fill-rule="nonzero" d="M3565 -1976c0,0 0,-1 0,-1 0,0 0,-1 1,-1 0,0 1,0 1,0 1,0 1,0 1,1 0,0 1,1 1,1 0,1 0,1 -1,1 0,0 -1,1 -1,1 0,0 -1,0 -1,0 0,0 -1,0 -1,-1 0,0 0,-1 0,-1zm1 0c0,0 0,1 0,1 0,0 0,0 1,0 0,0 0,0 1,0 0,0 0,0 0,-1 0,0 0,-1 0,-1 0,0 0,0 -1,0 0,0 0,0 -1,0 0,0 0,0 0,1z"/>
   <path id="19" fill="#9D9E9E" fill-rule="nonzero" d="M3570 -1974l-1 0 0 -4 1 0 0 1c0,0 0,0 0,0 0,0 0,0 0,0 0,0 0,0 1,0l0 1c0,0 0,0 0,0 0,0 0,0 0,0 0,0 0,0 0,0 0,0 0,1 0,1l0 1z"/>
   <polygon id="20" fill="#9D9E9E" fill-rule="nonzero" points="3572,-1974 3572,-1979 3573,-1979 3573,-1974 "/>
   <path id="21" fill="#9D9E9E" fill-rule="nonzero" d="M3577 -1974l-1 0 0 -1c0,0 0,0 -1,0 0,0 0,0 -1,0 0,0 -1,0 -1,-1 0,0 0,-1 0,-1 0,-1 0,-1 0,-1 0,0 1,0 1,0 0,0 1,0 1,1l0 -2 1 0 0 5zm-3 -2c0,0 0,1 0,1 0,0 0,0 1,0 0,0 0,0 1,0 0,0 0,0 0,-1 0,0 0,-1 0,-1 0,0 0,0 -1,0 0,0 0,0 -1,0 0,0 0,0 0,1z"/>
  </g>
  <path fill="#89C6AC" d="M3526 709l24 0c9,0 18,4 24,9 6,6 10,13 10,22l0 0c0,9 -4,16 -10,22 -6,6 -14,9 -24,9l-24 0c-9,0 -18,-4 -24,-9 -3,-3 -5,-5 -7,-9l19 0c3,2 7,4 12,4l24 0c5,0 10,-2 13,-5 3,-3 5,-7 5,-12l0 0c0,-5 -2,-9 -5,-12 -3,-3 -8,-5 -13,-5l-24 0c-4,0 -9,1 -12,4l-19 0c2,-3 4,-6 7,-9 6,-6 14,-9 24,-9z"/>
  <path fill="#5ABBC4" fill-rule="nonzero" d="M3455 750c0,0 0,0 0,0 0,0 0,0 0,0 0,0 0,0 0,0 0,0 0,0 0,0 0,0 0,0 0,0 0,0 0,0 0,0 0,0 0,0 0,0 0,0 0,0 0,0l0 -17c0,0 0,0 0,0 0,0 0,0 0,0 0,0 0,0 0,0 0,0 0,0 0,0 0,0 0,0 0,0 0,0 0,0 0,0 0,0 0,0 0,0 0,0 0,0 0,0l0 17z"/>
  <path id="1" fill="#5ABBC4" fill-rule="nonzero" d="M3476 750c0,0 0,0 0,0 0,0 0,0 0,0 0,0 0,0 0,0 0,0 0,0 0,0l0 0c0,0 0,0 -1,0 0,0 0,0 0,0 0,0 0,0 0,0 0,0 0,0 -1,-1l-7 -11c0,-1 -1,-1 -1,-2 0,-1 -1,-1 -1,-2l0 0c0,1 0,1 0,2 0,1 0,1 0,2l0 11c0,0 0,0 0,0 0,0 0,0 0,0 0,0 0,0 0,0 0,0 0,0 0,0 0,0 0,0 0,0 0,0 0,0 0,0 0,0 0,0 0,0 0,0 0,0 0,0l0 -17c0,0 0,-1 0,-1 0,0 0,0 1,0l1 0c0,0 0,0 1,0 0,0 0,0 0,0 0,0 0,0 0,0 0,0 0,0 0,1l5 8c0,1 1,1 1,2 0,0 1,1 1,1 0,0 1,1 1,1 0,0 1,1 1,1l0 0c0,-1 0,-2 0,-2 0,-1 0,-2 0,-2l0 -10c0,0 0,0 0,0 0,0 0,0 0,0 0,0 0,0 0,0 0,0 0,0 0,0 0,0 0,0 0,0 0,0 0,0 0,0 0,0 0,0 0,0 0,0 0,0 0,0l0 17z"/>
  <path id="2" fill="#5ABBC4" fill-rule="nonzero" d="M3492 734c0,0 0,0 0,0 0,0 0,0 0,0 0,0 0,0 0,0 0,0 0,0 0,0l-7 0 0 7 7 0c0,0 0,0 0,0 0,0 0,0 0,0 0,0 0,0 0,0 0,0 0,0 0,0 0,0 0,0 0,0 0,0 0,0 0,0 0,0 0,0 0,0 0,0 0,0 0,0l-7 0 0 8c0,0 0,0 0,0 0,0 0,0 0,0 0,0 0,0 0,0 0,0 0,0 0,0 0,0 0,0 0,0 0,0 0,0 0,0 0,0 0,0 0,0 0,0 0,0 0,0l0 -17c0,0 0,-1 0,-1 0,0 0,0 1,0l8 0c0,0 0,0 0,0 0,0 0,0 0,0 0,0 0,0 0,0 0,0 0,0 0,0z"/>
  <path id="3" fill="#5ABBC4" fill-rule="nonzero" d="M3499 750c0,0 0,0 0,0 0,0 0,0 0,0 0,0 0,0 0,0 0,0 0,0 0,0 0,0 0,0 0,0 0,0 0,0 0,0 0,0 0,0 0,0 0,0 0,0 0,0l0 -17c0,0 0,0 0,0 0,0 0,0 0,0 0,0 0,0 0,0 0,0 0,0 0,0 0,0 0,0 0,0 0,0 0,0 0,0 0,0 0,0 0,0 0,0 0,0 0,0l0 17z"/>
  <path id="4" fill="#5ABBC4" fill-rule="nonzero" d="M3520 750c0,0 0,0 0,0 0,0 0,0 0,0 0,0 0,0 0,0 0,0 0,0 0,0l0 0c0,0 0,0 -1,0 0,0 0,0 0,0 0,0 0,0 0,0 0,0 0,0 -1,-1l-7 -11c0,-1 -1,-1 -1,-2 0,-1 -1,-1 -1,-2l0 0c0,1 0,1 0,2 0,1 0,1 0,2l0 11c0,0 0,0 0,0 0,0 0,0 0,0 0,0 0,0 0,0 0,0 0,0 0,0 0,0 0,0 0,0 0,0 0,0 0,0 0,0 0,0 0,0 0,0 0,0 0,0l0 -17c0,0 0,-1 0,-1 0,0 0,0 1,0l1 0c0,0 0,0 1,0 0,0 0,0 0,0 0,0 0,0 0,0 0,0 0,0 0,1l5 8c0,1 1,1 1,2 0,0 1,1 1,1 0,0 1,1 1,1 0,0 1,1 1,1l0 0c0,-1 0,-2 0,-2 0,-1 0,-2 0,-2l0 -10c0,0 0,0 0,0 0,0 0,0 0,0 0,0 0,0 0,0 0,0 0,0 0,0 0,0 0,0 0,0 0,0 0,0 0,0 0,0 0,0 0,0 0,0 0,0 0,0l0 17z"/>
  <path id="5" fill="#5ABBC4" fill-rule="nonzero" d="M3528 750c0,0 0,0 0,0 0,0 0,0 0,0 0,0 0,0 0,0 0,0 0,0 0,0 0,0 0,0 0,0 0,0 0,0 0,0 0,0 0,0 0,0 0,0 0,0 0,0l0 -17c0,0 0,0 0,0 0,0 0,0 0,0 0,0 0,0 0,0 0,0 0,0 0,0 0,0 0,0 0,0 0,0 0,0 0,0 0,0 0,0 0,0 0,0 0,0 0,0l0 17z"/>
  <path id="6" fill="#5ABBC4" fill-rule="nonzero" d="M3546 734c0,0 0,0 0,0 0,0 0,0 0,0 0,0 0,0 0,0 0,0 0,0 0,0l-6 0 0 16c0,0 0,0 0,0 0,0 0,0 0,0 0,0 0,0 0,0 0,0 0,0 0,0 0,0 0,0 0,0 0,0 0,0 0,0 0,0 0,0 0,0 0,0 0,0 0,0l0 -16 -6 0c0,0 0,0 0,0 0,0 0,0 0,0 0,0 0,0 0,0 0,0 0,0 0,0 0,0 0,0 0,0 0,0 0,0 0,0 0,0 0,0 0,0 0,0 0,0 0,0l13 0c0,0 0,0 0,0 0,0 0,0 0,0 0,0 0,0 0,0 0,0 0,0 0,0z"/>
  <path id="7" fill="#5ABBC4" fill-rule="nonzero" d="M3556 744l0 7c0,0 0,0 0,0 0,0 0,0 0,0 0,0 0,0 0,0 0,0 0,0 0,0 0,0 0,0 0,0 0,0 0,0 0,0 0,0 0,0 0,0 0,0 0,0 0,0l0 -7 -5 -10c0,0 0,0 0,0 0,0 0,0 0,0 0,0 0,0 0,0 0,0 0,0 0,0 0,0 0,0 1,0 0,0 0,0 0,0 0,0 0,0 0,0 0,0 0,0 0,0l3 6c0,1 1,1 1,2 0,1 1,1 1,2l0 0c0,-1 1,-1 1,-2 0,-1 1,-1 1,-2l3 -6c0,0 0,0 0,0 0,0 0,0 0,0 0,0 0,0 0,0 0,0 0,0 0,0 0,0 0,0 1,0 0,0 0,0 0,0 0,0 0,0 0,0 0,0 0,0 0,0l-5 10z"/>
  <path fill="#FFA600" d="M3459 709l24 0c9,0 18,4 24,9 3,3 5,5 7,9l-19 0c-3,-2 -7,-4 -12,-4l-24 0c-5,0 -10,2 -13,5 -3,3 -5,7 -5,12l0 0c0,5 2,9 5,12 3,3 8,5 13,5l24 0c4,0 9,-1 12,-4l19 0c-2,3 -4,6 -7,9 -6,6 -14,9 -24,9l-24 0c-9,0 -18,-4 -24,-9 -6,-6 -10,-13 -10,-22l0 0c0,-9 4,-16 10,-22 6,-6 14,-9 24,-9z"/>
  <path fill="#9D9E9E" fill-rule="nonzero" d="M3466 779l-1 -5 1 0 1 3c0,0 0,1 0,1 0,-1 0,-1 0,-1l1 -4 1 0 1 3c0,1 0,1 0,2 0,0 0,-1 0,-1l1 -3 1 0 -2 5 -1 0 -1 -4c0,0 0,-1 0,-1 0,0 0,0 0,1l-1 4 -1 0z"/>
  <path id="1" fill="#9D9E9E" fill-rule="nonzero" d="M3475 778l1 0c0,0 0,1 -1,1 0,0 -1,0 -1,0 -1,0 -1,0 -1,-1 0,0 -1,-1 -1,-1 0,-1 0,-1 1,-1 0,0 1,-1 1,-1 1,0 1,0 1,1 0,0 1,1 1,1 0,0 0,0 0,0l-3 0c0,0 0,1 0,1 0,0 1,0 1,0 0,0 0,0 1,0 0,0 0,0 0,-1zm-2 -1l2 0c0,0 0,-1 0,-1 0,0 -1,0 -1,0 0,0 -1,0 -1,0 0,0 0,0 0,1z"/>
  <path id="2" fill="#9D9E9E" fill-rule="nonzero" d="M3483 777l1 0c0,1 0,1 -1,1 0,0 -1,0 -1,0 -1,0 -1,0 -1,0 0,0 -1,-1 -1,-1 0,0 0,-1 0,-1 0,-1 0,-1 0,-1 0,0 1,-1 1,-1 0,0 1,0 1,0 1,0 1,0 1,0 0,0 1,1 1,1l-1 0c0,0 0,-1 -1,-1 0,0 -1,0 -1,0 0,0 -1,0 -1,0 0,0 0,0 -1,1 0,0 0,1 0,1 0,0 0,1 0,1 0,0 0,1 1,1 0,0 1,0 1,0 0,0 1,0 1,0 0,0 0,-1 1,-1z"/>
  <path id="3" fill="#9D9E9E" fill-rule="nonzero" d="M3484 777c0,-1 0,-1 1,-2 0,0 1,0 1,0 1,0 1,0 1,1 0,0 1,1 1,1 0,0 0,1 0,1 0,0 0,0 -1,1 0,0 -1,0 -1,0 -1,0 -1,0 -1,-1 0,0 -1,-1 -1,-1zm1 0c0,0 0,1 0,1 0,0 1,0 1,0 0,0 1,0 1,0 0,0 0,-1 0,-1 0,0 0,-1 0,-1 0,0 -1,0 -1,0 0,0 -1,0 -1,0 0,0 0,1 0,1z"/>
  <path id="4" fill="#9D9E9E" fill-rule="nonzero" d="M3489 779l0 -4 1 0 0 1c0,0 1,-1 1,-1 0,0 0,0 1,0 0,0 0,0 0,0 0,0 0,0 0,0 0,0 0,0 0,1l0 2 -1 0 0 -2c0,0 0,0 0,-1 0,0 0,0 0,0 0,0 0,0 0,0 0,0 -1,0 -1,0 0,0 0,1 0,1l0 2 -1 0z"/>
  <path id="5" fill="#9D9E9E" fill-rule="nonzero" d="M3494 779l-2 -4 1 0 1 2c0,0 0,1 0,1 0,0 0,0 0,-1l1 -2 1 0 -2 4 -1 0z"/>
  <path id="6" fill="#9D9E9E" fill-rule="nonzero" d="M3500 778l1 0c0,0 0,1 -1,1 0,0 -1,0 -1,0 -1,0 -1,0 -1,-1 0,0 -1,-1 -1,-1 0,-1 0,-1 1,-1 0,0 1,-1 1,-1 1,0 1,0 1,1 0,0 1,1 1,1 0,0 0,0 0,0l-3 0c0,0 0,1 0,1 0,0 1,0 1,0 0,0 0,0 1,0 0,0 0,0 0,-1zm-2 -1l2 0c0,0 0,-1 0,-1 0,0 -1,0 -1,0 0,0 -1,0 -1,0 0,0 0,0 0,1z"/>
  <path id="7" fill="#9D9E9E" fill-rule="nonzero" d="M3501 779l0 -4 1 0 0 1c0,0 0,0 0,-1 0,0 0,0 0,0 0,0 0,0 1,0l0 1c0,0 0,0 -1,0 0,0 0,0 0,0 0,0 0,0 0,0 0,0 0,0 0,1l0 2 -1 0z"/>
  <path id="8" fill="#9D9E9E" fill-rule="nonzero" d="M3505 779l0 1c0,0 0,0 -1,0 0,0 0,0 -1,0 0,0 0,0 0,0 0,0 0,0 0,-1l0 -2 -1 0 0 0 1 0 0 -1 1 0 0 1 1 0 0 0 -1 0 0 2c0,0 0,0 0,0 0,0 0,0 0,0 0,0 0,0 0,0 0,0 0,0 0,0z"/>
  <path id="9" fill="#9D9E9E" fill-rule="nonzero" d="M3508 775l0 -1 1 0 0 1 -1 0zm0 5l0 -4 1 0 0 4 -1 0z"/>
  <path id="10" fill="#9D9E9E" fill-rule="nonzero" d="M3513 779l0 0c0,0 -1,1 -1,1 0,0 -1,0 -1,0 0,0 0,0 -1,-1 0,0 0,-1 0,-1 0,0 0,-1 0,-1 0,0 0,-1 1,-1 0,0 1,0 1,0 0,0 0,0 1,0 0,0 0,0 0,0l0 -2 1 0 0 5 -1 0zm-2 -2c0,0 0,1 0,1 0,0 0,0 1,0 0,0 1,0 1,0 0,0 0,-1 0,-1 0,-1 0,-1 0,-1 0,0 0,0 -1,0 0,0 -1,0 -1,0 0,0 0,1 0,1z"/>
  <path id="11" fill="#9D9E9E" fill-rule="nonzero" d="M3517 778l1 0c0,0 0,1 -1,1 0,0 -1,0 -1,0 -1,0 -1,0 -1,-1 0,0 -1,-1 -1,-1 0,-1 0,-1 1,-1 0,0 1,-1 1,-1 1,0 1,0 1,1 0,0 1,1 1,1 0,0 0,0 0,0l-3 0c0,0 0,1 0,1 0,0 1,0 1,0 0,0 0,0 1,0 0,0 0,0 0,-1zm-2 -1l2 0c0,0 0,-1 0,-1 0,0 -1,0 -1,0 0,0 -1,0 -1,0 0,0 0,0 0,1z"/>
  <path id="12" fill="#9D9E9E" fill-rule="nonzero" d="M3519 778l1 0c0,0 0,0 0,1 0,0 0,0 1,0 0,0 1,0 1,0 0,0 0,0 0,0 0,0 0,0 0,0 0,0 0,0 -1,0 -1,0 -1,0 -1,0 0,0 0,0 0,0 0,0 0,0 0,-1 0,0 0,0 0,0 0,0 0,0 0,0 0,0 0,0 0,0 0,0 0,0 1,0 0,0 1,0 1,0 0,0 0,0 1,0 0,0 0,0 0,1l-1 0c0,0 0,0 0,0 0,0 0,0 -1,0 0,0 -1,0 -1,0 0,0 0,0 0,0 0,0 0,0 0,0 0,0 0,0 0,0 0,0 0,0 1,0 0,0 1,0 1,0 0,0 0,0 0,0 0,0 0,0 0,1 0,0 0,0 0,1 0,0 0,0 -1,0 0,0 -1,0 -1,0 -1,0 -1,0 -1,0 0,0 0,-1 -1,-1z"/>
  <path id="13" fill="#9D9E9E" fill-rule="nonzero" d="M3525 775l0 -1 1 0 0 1 -1 0zm0 5l0 -4 1 0 0 4 -1 0z"/>
  <path id="14" fill="#9D9E9E" fill-rule="nonzero" d="M3527 779l0 -4 1 0 0 1c0,0 1,-1 1,-1 0,0 0,0 1,0 0,0 0,0 0,0 0,0 0,0 0,0 0,0 0,0 0,1l0 2 -1 0 0 -2c0,0 0,0 0,-1 0,0 0,0 0,0 0,0 0,0 0,0 0,0 -1,0 -1,0 0,0 0,1 0,1l0 2 -1 0z"/>
  <path id="15" fill="#9D9E9E" fill-rule="nonzero" d="M3533 779l0 1c0,0 0,0 -1,0 0,0 0,0 -1,0 0,0 0,0 0,0 0,0 0,0 0,-1l0 -2 -1 0 0 0 1 0 0 -1 1 0 0 1 1 0 0 0 -1 0 0 2c0,0 0,0 0,0 0,0 0,0 0,0 0,0 0,0 0,0 0,0 0,0 0,0z"/>
  <path id="16" fill="#9D9E9E" fill-rule="nonzero" d="M3533 777c0,-1 0,-1 1,-2 0,0 1,0 1,0 1,0 1,0 1,1 0,0 1,1 1,1 0,0 0,1 0,1 0,0 0,0 -1,1 0,0 -1,0 -1,0 -1,0 -1,0 -1,-1 0,0 -1,-1 -1,-1zm1 0c0,0 0,1 0,1 0,0 1,0 1,0 0,0 1,0 1,0 0,0 0,-1 0,-1 0,0 0,-1 0,-1 0,0 -1,0 -1,0 0,0 -1,0 -1,0 0,0 0,1 0,1z"/>
  <path id="17" fill="#9D9E9E" fill-rule="nonzero" d="M3540 779l0 -4 1 0 0 1c0,0 0,0 0,-1 0,0 0,0 0,0 0,0 0,0 1,0l0 1c0,0 0,0 -1,0 0,0 0,0 0,0 0,0 0,0 0,0 0,0 0,0 0,1l0 2 -1 0z"/>
  <path id="18" fill="#9D9E9E" fill-rule="nonzero" d="M3545 778l1 0c0,0 0,1 -1,1 0,0 -1,0 -1,0 -1,0 -1,0 -1,-1 0,0 -1,-1 -1,-1 0,-1 0,-1 1,-1 0,0 1,-1 1,-1 1,0 1,0 1,1 0,0 1,1 1,1 0,0 0,0 0,0l-3 0c0,0 0,1 0,1 0,0 1,0 1,0 0,0 0,0 1,0 0,0 0,0 0,-1zm-2 -1l2 0c0,0 0,-1 0,-1 0,0 -1,0 -1,0 0,0 -1,0 -1,0 0,0 0,0 0,1z"/>
  <path id="19" fill="#9D9E9E" fill-rule="nonzero" d="M3550 779c0,0 -1,0 -1,0 0,0 0,0 -1,0 0,0 -1,0 -1,0 0,0 0,0 0,-1 0,0 0,0 0,-1 0,0 0,0 0,0 0,0 0,0 0,0 0,0 0,0 1,0 1,0 1,0 1,0 0,0 0,0 0,0 0,0 0,0 0,-1 0,0 0,0 -1,0 0,0 -1,0 -1,0 0,0 0,0 0,1l-1 0c0,0 0,0 0,-1 0,0 0,0 1,0 0,0 1,0 1,0 0,0 1,0 1,0 0,0 0,0 0,0 0,0 0,0 0,0 0,0 0,0 0,1l0 1c0,1 0,1 0,1 0,0 0,0 0,0l-1 0c0,0 0,0 0,0zm0 -1c0,0 -1,0 -1,0 0,0 0,0 -1,0 0,0 0,0 0,0 0,0 0,0 0,0 0,0 0,0 0,0 0,0 0,0 1,0 0,0 1,0 1,0 0,0 0,0 0,0 0,0 0,0 0,-1l0 0z"/>
  <polygon id="20" fill="#9D9E9E" fill-rule="nonzero" points="3551,779 3551,774 3552,774 3552,779 "/>
 </g>
</svg>
